<svg viewBox="0 0 1600 900" xmlns="http://www.w3.org/2000/svg" font-family="Georgia, serif">
  <rect x="0" y="0" width="1600" height="900" fill="#efe0c9"/>
  <rect x="20" y="20" width="1560" height="860" fill="none" stroke="#5c3a3f" stroke-width="4"/>

  <text x="50" y="65" font-size="34" fill="#5c3a3f" font-weight="bold">DECK</text>

  <!-- Piso de madeira (linhas decorativas) -->
  <g stroke="#d9c4a0" stroke-width="2" opacity="0.6">
    <line x1="20" y1="150" x2="1580" y2="150"/>
    <line x1="20" y1="250" x2="1580" y2="250"/>
    <line x1="20" y1="350" x2="1580" y2="350"/>
    <line x1="20" y1="450" x2="1580" y2="450"/>
    <line x1="20" y1="550" x2="1580" y2="550"/>
    <line x1="20" y1="650" x2="1580" y2="650"/>
    <line x1="20" y1="750" x2="1580" y2="750"/>
  </g>

  <text x="290" y="270" font-size="18" fill="#8a5a3f" text-anchor="middle">lado esquerdo</text>
  <text x="1310" y="270" font-size="18" fill="#8a5a3f" text-anchor="middle">lado direito</text>

  <!-- Plantas decorativas nos cantos -->
  <g fill="#6b8a5a" opacity="0.7">
    <circle cx="70" cy="750" r="26"/>
    <circle cx="100" cy="770" r="20"/>
    <circle cx="1530" cy="750" r="26"/>
    <circle cx="1500" cy="770" r="20"/>
  </g>

  <!-- Corredor / entrada central -->
  <rect x="700" y="300" width="200" height="480" fill="none" stroke="#8a5a3f" stroke-width="2" stroke-dasharray="8 6"/>
  <text x="800" y="470" font-size="18" fill="#8a5a3f" text-anchor="middle">portão / rua</text>
  <rect x="760" y="740" width="80" height="14" fill="#c9a84c"/>
  <text x="800" y="785" font-size="18" fill="#5c3a3f" text-anchor="middle">entrada</text>
</svg>